<mxfile host="" modified="2020-06-26T05:26:04.252Z" agent="5.0 (Windows NT 10.0; Win64; x64) AppleWebKit/537.36 (KHTML, like Gecko) Code/1.46.1 Chrome/78.0.3904.130 Electron/7.3.1 Safari/537.36" etag="_5nczkE6vYApvkCQmuQc" version="13.1.3">
    <diagram id="C5RBs43oDa-KdzZeNtuy" name="Page-1">
        <mxGraphModel dx="619" dy="433" grid="1" gridSize="10" guides="1" tooltips="1" connect="1" arrows="1" fold="1" page="1" pageScale="1" pageWidth="827" pageHeight="1169" math="0" shadow="0">
            <root>
                <mxCell id="WIyWlLk6GJQsqaUBKTNV-0"/>
                <mxCell id="WIyWlLk6GJQsqaUBKTNV-1" parent="WIyWlLk6GJQsqaUBKTNV-0"/>
                <mxCell id="FTCJbklHe9fWPc0s91Qd-14" value="posts" style="shape=table;startSize=30;container=1;collapsible=1;childLayout=tableLayout;fixedRows=1;rowLines=0;fontStyle=1;align=center;resizeLast=1;" parent="WIyWlLk6GJQsqaUBKTNV-1" vertex="1">
                    <mxGeometry x="80" y="120" width="180" height="190" as="geometry"/>
                </mxCell>
                <mxCell id="FTCJbklHe9fWPc0s91Qd-15" value="" style="shape=partialRectangle;collapsible=0;dropTarget=0;pointerEvents=0;fillColor=none;top=0;left=0;bottom=1;right=0;points=[[0,0.5],[1,0.5]];portConstraint=eastwest;" parent="FTCJbklHe9fWPc0s91Qd-14" vertex="1">
                    <mxGeometry y="30" width="180" height="30" as="geometry"/>
                </mxCell>
                <mxCell id="FTCJbklHe9fWPc0s91Qd-16" value="PK" style="shape=partialRectangle;connectable=0;fillColor=none;top=0;left=0;bottom=0;right=0;fontStyle=1;overflow=hidden;" parent="FTCJbklHe9fWPc0s91Qd-15" vertex="1">
                    <mxGeometry width="30" height="30" as="geometry"/>
                </mxCell>
                <mxCell id="FTCJbklHe9fWPc0s91Qd-17" value="id" style="shape=partialRectangle;connectable=0;fillColor=none;top=0;left=0;bottom=0;right=0;align=left;spacingLeft=6;fontStyle=5;overflow=hidden;" parent="FTCJbklHe9fWPc0s91Qd-15" vertex="1">
                    <mxGeometry x="30" width="150" height="30" as="geometry"/>
                </mxCell>
                <mxCell id="FTCJbklHe9fWPc0s91Qd-18" value="" style="shape=partialRectangle;collapsible=0;dropTarget=0;pointerEvents=0;fillColor=none;top=0;left=0;bottom=0;right=0;points=[[0,0.5],[1,0.5]];portConstraint=eastwest;" parent="FTCJbklHe9fWPc0s91Qd-14" vertex="1">
                    <mxGeometry y="60" width="180" height="30" as="geometry"/>
                </mxCell>
                <mxCell id="FTCJbklHe9fWPc0s91Qd-19" value="" style="shape=partialRectangle;connectable=0;fillColor=none;top=0;left=0;bottom=0;right=0;editable=1;overflow=hidden;" parent="FTCJbklHe9fWPc0s91Qd-18" vertex="1">
                    <mxGeometry width="30" height="30" as="geometry"/>
                </mxCell>
                <mxCell id="FTCJbklHe9fWPc0s91Qd-20" value="body" style="shape=partialRectangle;connectable=0;fillColor=none;top=0;left=0;bottom=0;right=0;align=left;spacingLeft=6;overflow=hidden;" parent="FTCJbklHe9fWPc0s91Qd-18" vertex="1">
                    <mxGeometry x="30" width="150" height="30" as="geometry"/>
                </mxCell>
                <mxCell id="FTCJbklHe9fWPc0s91Qd-21" value="" style="shape=partialRectangle;collapsible=0;dropTarget=0;pointerEvents=0;fillColor=none;top=0;left=0;bottom=0;right=0;points=[[0,0.5],[1,0.5]];portConstraint=eastwest;" parent="FTCJbklHe9fWPc0s91Qd-14" vertex="1">
                    <mxGeometry y="90" width="180" height="30" as="geometry"/>
                </mxCell>
                <mxCell id="FTCJbklHe9fWPc0s91Qd-22" value="FK" style="shape=partialRectangle;connectable=0;fillColor=none;top=0;left=0;bottom=0;right=0;editable=1;overflow=hidden;" parent="FTCJbklHe9fWPc0s91Qd-21" vertex="1">
                    <mxGeometry width="30" height="30" as="geometry"/>
                </mxCell>
                <mxCell id="FTCJbklHe9fWPc0s91Qd-23" value="user_id" style="shape=partialRectangle;connectable=0;fillColor=none;top=0;left=0;bottom=0;right=0;align=left;spacingLeft=6;overflow=hidden;" parent="FTCJbklHe9fWPc0s91Qd-21" vertex="1">
                    <mxGeometry x="30" width="150" height="30" as="geometry"/>
                </mxCell>
                <mxCell id="FTCJbklHe9fWPc0s91Qd-24" value="" style="shape=partialRectangle;collapsible=0;dropTarget=0;pointerEvents=0;fillColor=none;top=0;left=0;bottom=0;right=0;points=[[0,0.5],[1,0.5]];portConstraint=eastwest;" parent="FTCJbklHe9fWPc0s91Qd-14" vertex="1">
                    <mxGeometry y="120" width="180" height="30" as="geometry"/>
                </mxCell>
                <mxCell id="FTCJbklHe9fWPc0s91Qd-25" value="FK" style="shape=partialRectangle;connectable=0;fillColor=none;top=0;left=0;bottom=0;right=0;editable=1;overflow=hidden;" parent="FTCJbklHe9fWPc0s91Qd-24" vertex="1">
                    <mxGeometry width="30" height="30" as="geometry"/>
                </mxCell>
                <mxCell id="FTCJbklHe9fWPc0s91Qd-26" value="category_id" style="shape=partialRectangle;connectable=0;fillColor=none;top=0;left=0;bottom=0;right=0;align=left;spacingLeft=6;overflow=hidden;" parent="FTCJbklHe9fWPc0s91Qd-24" vertex="1">
                    <mxGeometry x="30" width="150" height="30" as="geometry"/>
                </mxCell>
                <mxCell id="FTCJbklHe9fWPc0s91Qd-27" style="shape=partialRectangle;collapsible=0;dropTarget=0;pointerEvents=0;fillColor=none;top=0;left=0;bottom=0;right=0;points=[[0,0.5],[1,0.5]];portConstraint=eastwest;" parent="FTCJbklHe9fWPc0s91Qd-14" vertex="1">
                    <mxGeometry y="150" width="180" height="30" as="geometry"/>
                </mxCell>
                <mxCell id="FTCJbklHe9fWPc0s91Qd-28" style="shape=partialRectangle;connectable=0;fillColor=none;top=0;left=0;bottom=0;right=0;editable=1;overflow=hidden;" parent="FTCJbklHe9fWPc0s91Qd-27" vertex="1">
                    <mxGeometry width="30" height="30" as="geometry"/>
                </mxCell>
                <mxCell id="FTCJbklHe9fWPc0s91Qd-29" value="post_at" style="shape=partialRectangle;connectable=0;fillColor=none;top=0;left=0;bottom=0;right=0;align=left;spacingLeft=6;overflow=hidden;" parent="FTCJbklHe9fWPc0s91Qd-27" vertex="1">
                    <mxGeometry x="30" width="150" height="30" as="geometry"/>
                </mxCell>
                <mxCell id="FTCJbklHe9fWPc0s91Qd-133" style="edgeStyle=orthogonalEdgeStyle;rounded=0;orthogonalLoop=1;jettySize=auto;html=1;exitX=0;exitY=0.5;exitDx=0;exitDy=0;endArrow=ERmany;endFill=0;sketch=0;startArrow=none;startFill=0;" parent="WIyWlLk6GJQsqaUBKTNV-1" source="FTCJbklHe9fWPc0s91Qd-1" target="FTCJbklHe9fWPc0s91Qd-24" edge="1">
                    <mxGeometry relative="1" as="geometry">
                        <Array as="points">
                            <mxPoint x="30" y="435"/>
                            <mxPoint x="30" y="255"/>
                        </Array>
                    </mxGeometry>
                </mxCell>
                <mxCell id="FTCJbklHe9fWPc0s91Qd-176" style="edgeStyle=orthogonalEdgeStyle;rounded=0;orthogonalLoop=1;jettySize=auto;html=1;exitX=0;exitY=0.5;exitDx=0;exitDy=0;entryX=1;entryY=0.5;entryDx=0;entryDy=0;endArrow=ERzeroToMany;endFill=1;startArrow=ERzeroToMany;startFill=1;" parent="WIyWlLk6GJQsqaUBKTNV-1" source="FTCJbklHe9fWPc0s91Qd-62" target="FTCJbklHe9fWPc0s91Qd-37" edge="1">
                    <mxGeometry relative="1" as="geometry"/>
                </mxCell>
                <mxCell id="FTCJbklHe9fWPc0s91Qd-178" style="edgeStyle=orthogonalEdgeStyle;rounded=0;orthogonalLoop=1;jettySize=auto;html=1;exitX=0;exitY=0.5;exitDx=0;exitDy=0;entryX=1;entryY=0.5;entryDx=0;entryDy=0;startArrow=none;startFill=0;endArrow=ERmany;endFill=0;" parent="WIyWlLk6GJQsqaUBKTNV-1" source="FTCJbklHe9fWPc0s91Qd-31" target="FTCJbklHe9fWPc0s91Qd-21" edge="1">
                    <mxGeometry relative="1" as="geometry"/>
                </mxCell>
                <mxCell id="FTCJbklHe9fWPc0s91Qd-58" value="logins" style="shape=table;startSize=30;container=1;collapsible=1;childLayout=tableLayout;fixedRows=1;rowLines=0;fontStyle=1;align=center;resizeLast=1;" parent="WIyWlLk6GJQsqaUBKTNV-1" vertex="1">
                    <mxGeometry x="610" y="320" width="180" height="160" as="geometry"/>
                </mxCell>
                <mxCell id="FTCJbklHe9fWPc0s91Qd-59" value="" style="shape=partialRectangle;collapsible=0;dropTarget=0;pointerEvents=0;fillColor=none;top=0;left=0;bottom=1;right=0;points=[[0,0.5],[1,0.5]];portConstraint=eastwest;" parent="FTCJbklHe9fWPc0s91Qd-58" vertex="1">
                    <mxGeometry y="30" width="180" height="30" as="geometry"/>
                </mxCell>
                <mxCell id="FTCJbklHe9fWPc0s91Qd-60" value="PK" style="shape=partialRectangle;connectable=0;fillColor=none;top=0;left=0;bottom=0;right=0;fontStyle=1;overflow=hidden;" parent="FTCJbklHe9fWPc0s91Qd-59" vertex="1">
                    <mxGeometry width="30" height="30" as="geometry"/>
                </mxCell>
                <mxCell id="FTCJbklHe9fWPc0s91Qd-61" value="id" style="shape=partialRectangle;connectable=0;fillColor=none;top=0;left=0;bottom=0;right=0;align=left;spacingLeft=6;fontStyle=5;overflow=hidden;" parent="FTCJbklHe9fWPc0s91Qd-59" vertex="1">
                    <mxGeometry x="30" width="150" height="30" as="geometry"/>
                </mxCell>
                <mxCell id="FTCJbklHe9fWPc0s91Qd-62" value="" style="shape=partialRectangle;collapsible=0;dropTarget=0;pointerEvents=0;fillColor=none;top=0;left=0;bottom=0;right=0;points=[[0,0.5],[1,0.5]];portConstraint=eastwest;" parent="FTCJbklHe9fWPc0s91Qd-58" vertex="1">
                    <mxGeometry y="60" width="180" height="30" as="geometry"/>
                </mxCell>
                <mxCell id="FTCJbklHe9fWPc0s91Qd-63" value="FK" style="shape=partialRectangle;connectable=0;fillColor=none;top=0;left=0;bottom=0;right=0;editable=1;overflow=hidden;" parent="FTCJbklHe9fWPc0s91Qd-62" vertex="1">
                    <mxGeometry width="30" height="30" as="geometry"/>
                </mxCell>
                <mxCell id="FTCJbklHe9fWPc0s91Qd-64" value="mail" style="shape=partialRectangle;connectable=0;fillColor=none;top=0;left=0;bottom=0;right=0;align=left;spacingLeft=6;overflow=hidden;" parent="FTCJbklHe9fWPc0s91Qd-62" vertex="1">
                    <mxGeometry x="30" width="150" height="30" as="geometry"/>
                </mxCell>
                <mxCell id="FTCJbklHe9fWPc0s91Qd-65" value="" style="shape=partialRectangle;collapsible=0;dropTarget=0;pointerEvents=0;fillColor=none;top=0;left=0;bottom=0;right=0;points=[[0,0.5],[1,0.5]];portConstraint=eastwest;" parent="FTCJbklHe9fWPc0s91Qd-58" vertex="1">
                    <mxGeometry y="90" width="180" height="30" as="geometry"/>
                </mxCell>
                <mxCell id="FTCJbklHe9fWPc0s91Qd-66" value="FK" style="shape=partialRectangle;connectable=0;fillColor=none;top=0;left=0;bottom=0;right=0;editable=1;overflow=hidden;" parent="FTCJbklHe9fWPc0s91Qd-65" vertex="1">
                    <mxGeometry width="30" height="30" as="geometry"/>
                </mxCell>
                <mxCell id="FTCJbklHe9fWPc0s91Qd-67" value="pass" style="shape=partialRectangle;connectable=0;fillColor=none;top=0;left=0;bottom=0;right=0;align=left;spacingLeft=6;overflow=hidden;" parent="FTCJbklHe9fWPc0s91Qd-65" vertex="1">
                    <mxGeometry x="30" width="150" height="30" as="geometry"/>
                </mxCell>
                <mxCell id="FTCJbklHe9fWPc0s91Qd-68" value="" style="shape=partialRectangle;collapsible=0;dropTarget=0;pointerEvents=0;fillColor=none;top=0;left=0;bottom=0;right=0;points=[[0,0.5],[1,0.5]];portConstraint=eastwest;" parent="FTCJbklHe9fWPc0s91Qd-58" vertex="1">
                    <mxGeometry y="120" width="180" height="30" as="geometry"/>
                </mxCell>
                <mxCell id="FTCJbklHe9fWPc0s91Qd-69" value="" style="shape=partialRectangle;connectable=0;fillColor=none;top=0;left=0;bottom=0;right=0;editable=1;overflow=hidden;" parent="FTCJbklHe9fWPc0s91Qd-68" vertex="1">
                    <mxGeometry width="30" height="30" as="geometry"/>
                </mxCell>
                <mxCell id="FTCJbklHe9fWPc0s91Qd-70" value="login_at" style="shape=partialRectangle;connectable=0;fillColor=none;top=0;left=0;bottom=0;right=0;align=left;spacingLeft=6;overflow=hidden;" parent="FTCJbklHe9fWPc0s91Qd-68" vertex="1">
                    <mxGeometry x="30" width="150" height="30" as="geometry"/>
                </mxCell>
                <mxCell id="FTCJbklHe9fWPc0s91Qd-30" value="users" style="shape=table;startSize=30;container=1;collapsible=1;childLayout=tableLayout;fixedRows=1;rowLines=0;fontStyle=1;align=center;resizeLast=1;" parent="WIyWlLk6GJQsqaUBKTNV-1" vertex="1">
                    <mxGeometry x="324" y="230" width="180" height="270" as="geometry"/>
                </mxCell>
                <mxCell id="FTCJbklHe9fWPc0s91Qd-31" value="" style="shape=partialRectangle;collapsible=0;dropTarget=0;pointerEvents=0;fillColor=none;top=0;left=0;bottom=1;right=0;points=[[0,0.5],[1,0.5]];portConstraint=eastwest;" parent="FTCJbklHe9fWPc0s91Qd-30" vertex="1">
                    <mxGeometry width="180" height="36" as="geometry"/>
                </mxCell>
                <mxCell id="FTCJbklHe9fWPc0s91Qd-32" value="PK" style="shape=partialRectangle;connectable=0;fillColor=none;top=0;left=0;bottom=0;right=0;fontStyle=1;overflow=hidden;" parent="FTCJbklHe9fWPc0s91Qd-31" vertex="1">
                    <mxGeometry width="30" height="36" as="geometry"/>
                </mxCell>
                <mxCell id="FTCJbklHe9fWPc0s91Qd-33" value="id" style="shape=partialRectangle;connectable=0;fillColor=none;top=0;left=0;bottom=0;right=0;align=left;spacingLeft=6;fontStyle=5;overflow=hidden;" parent="FTCJbklHe9fWPc0s91Qd-31" vertex="1">
                    <mxGeometry x="30" width="150" height="36" as="geometry"/>
                </mxCell>
                <mxCell id="FTCJbklHe9fWPc0s91Qd-34" value="" style="shape=partialRectangle;collapsible=0;dropTarget=0;pointerEvents=0;fillColor=none;top=0;left=0;bottom=0;right=0;points=[[0,0.5],[1,0.5]];portConstraint=eastwest;" parent="FTCJbklHe9fWPc0s91Qd-30" vertex="1">
                    <mxGeometry y="36" width="180" height="35" as="geometry"/>
                </mxCell>
                <mxCell id="FTCJbklHe9fWPc0s91Qd-35" value="" style="shape=partialRectangle;connectable=0;fillColor=none;top=0;left=0;bottom=0;right=0;editable=1;overflow=hidden;" parent="FTCJbklHe9fWPc0s91Qd-34" vertex="1">
                    <mxGeometry width="30" height="35" as="geometry"/>
                </mxCell>
                <mxCell id="FTCJbklHe9fWPc0s91Qd-36" value="name" style="shape=partialRectangle;connectable=0;fillColor=none;top=0;left=0;bottom=0;right=0;align=left;spacingLeft=6;overflow=hidden;" parent="FTCJbklHe9fWPc0s91Qd-34" vertex="1">
                    <mxGeometry x="30" width="150" height="35" as="geometry"/>
                </mxCell>
                <mxCell id="FTCJbklHe9fWPc0s91Qd-37" value="" style="shape=partialRectangle;collapsible=0;dropTarget=0;pointerEvents=0;fillColor=none;top=0;left=0;bottom=0;right=0;points=[[0,0.5],[1,0.5]];portConstraint=eastwest;" parent="FTCJbklHe9fWPc0s91Qd-30" vertex="1">
                    <mxGeometry y="71" width="180" height="36" as="geometry"/>
                </mxCell>
                <mxCell id="FTCJbklHe9fWPc0s91Qd-38" value="" style="shape=partialRectangle;connectable=0;fillColor=none;top=0;left=0;bottom=0;right=0;editable=1;overflow=hidden;" parent="FTCJbklHe9fWPc0s91Qd-37" vertex="1">
                    <mxGeometry width="30" height="36" as="geometry"/>
                </mxCell>
                <mxCell id="FTCJbklHe9fWPc0s91Qd-39" value="mail" style="shape=partialRectangle;connectable=0;fillColor=none;top=0;left=0;bottom=0;right=0;align=left;spacingLeft=6;overflow=hidden;" parent="FTCJbklHe9fWPc0s91Qd-37" vertex="1">
                    <mxGeometry x="30" width="150" height="36" as="geometry"/>
                </mxCell>
                <mxCell id="FTCJbklHe9fWPc0s91Qd-40" value="" style="shape=partialRectangle;collapsible=0;dropTarget=0;pointerEvents=0;fillColor=none;top=0;left=0;bottom=0;right=0;points=[[0,0.5],[1,0.5]];portConstraint=eastwest;" parent="FTCJbklHe9fWPc0s91Qd-30" vertex="1">
                    <mxGeometry y="107" width="180" height="36" as="geometry"/>
                </mxCell>
                <mxCell id="FTCJbklHe9fWPc0s91Qd-41" value="" style="shape=partialRectangle;connectable=0;fillColor=none;top=0;left=0;bottom=0;right=0;editable=1;overflow=hidden;" parent="FTCJbklHe9fWPc0s91Qd-40" vertex="1">
                    <mxGeometry width="30" height="36" as="geometry"/>
                </mxCell>
                <mxCell id="FTCJbklHe9fWPc0s91Qd-42" value="pass" style="shape=partialRectangle;connectable=0;fillColor=none;top=0;left=0;bottom=0;right=0;align=left;spacingLeft=6;overflow=hidden;" parent="FTCJbklHe9fWPc0s91Qd-40" vertex="1">
                    <mxGeometry x="30" width="150" height="36" as="geometry"/>
                </mxCell>
                <mxCell id="FTCJbklHe9fWPc0s91Qd-43" style="shape=partialRectangle;collapsible=0;dropTarget=0;pointerEvents=0;fillColor=none;top=0;left=0;bottom=0;right=0;points=[[0,0.5],[1,0.5]];portConstraint=eastwest;" parent="FTCJbklHe9fWPc0s91Qd-30" vertex="1">
                    <mxGeometry y="143" width="180" height="36" as="geometry"/>
                </mxCell>
                <mxCell id="FTCJbklHe9fWPc0s91Qd-44" style="shape=partialRectangle;connectable=0;fillColor=none;top=0;left=0;bottom=0;right=0;editable=1;overflow=hidden;" parent="FTCJbklHe9fWPc0s91Qd-43" vertex="1">
                    <mxGeometry width="30" height="36" as="geometry"/>
                </mxCell>
                <mxCell id="FTCJbklHe9fWPc0s91Qd-45" value="birth" style="shape=partialRectangle;connectable=0;fillColor=none;top=0;left=0;bottom=0;right=0;align=left;spacingLeft=6;overflow=hidden;" parent="FTCJbklHe9fWPc0s91Qd-43" vertex="1">
                    <mxGeometry x="30" width="150" height="36" as="geometry"/>
                </mxCell>
                <mxCell id="FTCJbklHe9fWPc0s91Qd-49" style="shape=partialRectangle;collapsible=0;dropTarget=0;pointerEvents=0;fillColor=none;top=0;left=0;bottom=0;right=0;points=[[0,0.5],[1,0.5]];portConstraint=eastwest;" parent="FTCJbklHe9fWPc0s91Qd-30" vertex="1">
                    <mxGeometry y="179" width="180" height="35" as="geometry"/>
                </mxCell>
                <mxCell id="FTCJbklHe9fWPc0s91Qd-50" style="shape=partialRectangle;connectable=0;fillColor=none;top=0;left=0;bottom=0;right=0;editable=1;overflow=hidden;" parent="FTCJbklHe9fWPc0s91Qd-49" vertex="1">
                    <mxGeometry width="30" height="35" as="geometry"/>
                </mxCell>
                <mxCell id="FTCJbklHe9fWPc0s91Qd-51" value="adress" style="shape=partialRectangle;connectable=0;fillColor=none;top=0;left=0;bottom=0;right=0;align=left;spacingLeft=6;overflow=hidden;" parent="FTCJbklHe9fWPc0s91Qd-49" vertex="1">
                    <mxGeometry x="30" width="150" height="35" as="geometry"/>
                </mxCell>
                <mxCell id="FTCJbklHe9fWPc0s91Qd-52" style="shape=partialRectangle;collapsible=0;dropTarget=0;pointerEvents=0;fillColor=none;top=0;left=0;bottom=0;right=0;points=[[0,0.5],[1,0.5]];portConstraint=eastwest;" parent="FTCJbklHe9fWPc0s91Qd-30" vertex="1">
                    <mxGeometry y="214" width="180" height="36" as="geometry"/>
                </mxCell>
                <mxCell id="FTCJbklHe9fWPc0s91Qd-53" style="shape=partialRectangle;connectable=0;fillColor=none;top=0;left=0;bottom=0;right=0;editable=1;overflow=hidden;" parent="FTCJbklHe9fWPc0s91Qd-52" vertex="1">
                    <mxGeometry width="30" height="36" as="geometry"/>
                </mxCell>
                <mxCell id="FTCJbklHe9fWPc0s91Qd-54" value="regi_at" style="shape=partialRectangle;connectable=0;fillColor=none;top=0;left=0;bottom=0;right=0;align=left;spacingLeft=6;overflow=hidden;" parent="FTCJbklHe9fWPc0s91Qd-52" vertex="1">
                    <mxGeometry x="30" width="150" height="36" as="geometry"/>
                </mxCell>
                <mxCell id="0" style="shape=partialRectangle;collapsible=0;dropTarget=0;pointerEvents=0;fillColor=none;top=0;left=0;bottom=0;right=0;points=[[0,0.5],[1,0.5]];portConstraint=eastwest;" vertex="1" parent="FTCJbklHe9fWPc0s91Qd-30">
                    <mxGeometry y="250" width="180" height="20" as="geometry"/>
                </mxCell>
                <mxCell id="1" style="shape=partialRectangle;connectable=0;fillColor=none;top=0;left=0;bottom=0;right=0;editable=1;overflow=hidden;" vertex="1" parent="0">
                    <mxGeometry width="30" height="20" as="geometry"/>
                </mxCell>
                <mxCell id="2" value="gender" style="shape=partialRectangle;connectable=0;fillColor=none;top=0;left=0;bottom=0;right=0;align=left;spacingLeft=6;overflow=hidden;" vertex="1" parent="0">
                    <mxGeometry x="30" width="150" height="20" as="geometry"/>
                </mxCell>
                <mxCell id="FTCJbklHe9fWPc0s91Qd-0" value="categories" style="shape=table;startSize=30;container=1;collapsible=1;childLayout=tableLayout;fixedRows=1;rowLines=0;fontStyle=1;align=center;resizeLast=1;" parent="WIyWlLk6GJQsqaUBKTNV-1" vertex="1">
                    <mxGeometry x="90" y="390" width="170" height="90" as="geometry"/>
                </mxCell>
                <mxCell id="FTCJbklHe9fWPc0s91Qd-1" value="" style="shape=partialRectangle;collapsible=0;dropTarget=0;pointerEvents=0;fillColor=none;top=0;left=0;bottom=1;right=0;points=[[0,0.5],[1,0.5]];portConstraint=eastwest;" parent="FTCJbklHe9fWPc0s91Qd-0" vertex="1">
                    <mxGeometry y="30" width="170" height="30" as="geometry"/>
                </mxCell>
                <mxCell id="FTCJbklHe9fWPc0s91Qd-2" value="PK" style="shape=partialRectangle;connectable=0;fillColor=none;top=0;left=0;bottom=0;right=0;fontStyle=1;overflow=hidden;" parent="FTCJbklHe9fWPc0s91Qd-1" vertex="1">
                    <mxGeometry width="30" height="30" as="geometry"/>
                </mxCell>
                <mxCell id="FTCJbklHe9fWPc0s91Qd-3" value="id" style="shape=partialRectangle;connectable=0;fillColor=none;top=0;left=0;bottom=0;right=0;align=left;spacingLeft=6;fontStyle=5;overflow=hidden;" parent="FTCJbklHe9fWPc0s91Qd-1" vertex="1">
                    <mxGeometry x="30" width="140" height="30" as="geometry"/>
                </mxCell>
                <mxCell id="FTCJbklHe9fWPc0s91Qd-4" value="" style="shape=partialRectangle;collapsible=0;dropTarget=0;pointerEvents=0;fillColor=none;top=0;left=0;bottom=0;right=0;points=[[0,0.5],[1,0.5]];portConstraint=eastwest;" parent="FTCJbklHe9fWPc0s91Qd-0" vertex="1">
                    <mxGeometry y="60" width="170" height="30" as="geometry"/>
                </mxCell>
                <mxCell id="FTCJbklHe9fWPc0s91Qd-5" value="" style="shape=partialRectangle;connectable=0;fillColor=none;top=0;left=0;bottom=0;right=0;editable=1;overflow=hidden;" parent="FTCJbklHe9fWPc0s91Qd-4" vertex="1">
                    <mxGeometry width="30" height="30" as="geometry"/>
                </mxCell>
                <mxCell id="FTCJbklHe9fWPc0s91Qd-6" value="category" style="shape=partialRectangle;connectable=0;fillColor=none;top=0;left=0;bottom=0;right=0;align=left;spacingLeft=6;overflow=hidden;" parent="FTCJbklHe9fWPc0s91Qd-4" vertex="1">
                    <mxGeometry x="30" width="140" height="30" as="geometry"/>
                </mxCell>
            </root>
        </mxGraphModel>
    </diagram>
</mxfile>